<?xml version="1.0" encoding="utf-8"?>
<!-- Generator: Adobe Illustrator 18.0.0, SVG Export Plug-In . SVG Version: 6.00 Build 0)  -->
<!DOCTYPE svg PUBLIC "-//W3C//DTD SVG 1.1//EN" "http://www.w3.org/Graphics/SVG/1.1/DTD/svg11.dtd">
<svg version="1.1" id="Livello_1" xmlns="http://www.w3.org/2000/svg" xmlns:xlink="http://www.w3.org/1999/xlink" x="0px" y="0px"
	 viewBox="0 0 1024 1800" enable-background="new 0 0 1024 1800" xml:space="preserve">
<g>
	<defs>
		<rect id="SVGID_1_" x="1.8" y="-0.5" width="1022.6" height="1801"/>
	</defs>
	<clipPath id="SVGID_2_">
		<use xlink:href="#SVGID_1_"  overflow="visible"/>
	</clipPath>
	<rect x="-18.8" y="1522.6" clip-path="url(#SVGID_2_)" fill="#E96A63" width="1055.7" height="300"/>
	<path clip-path="url(#SVGID_2_)" fill="#01AE93" d="M-15.4,1539.4c0,0,65.9,78.5,228.9,78.4c76,0,124.3,13.1,155.9,23.2
		c29.6,9.5,44.8,15.9,44.8,15.9s118.8,46.4,219.3-6.5c107.6-56.7,170.6,5.6,203.1,17.9c31.1,11.7,39.2,11.1,81.8,9.3
		c42.6-1.8,88.5-16.4,101.9-56.5c26.7-80.3,30.1-160.6,30.1-160.6l-1014-196.9l-51.1,272.3L-15.4,1539.4z"/>
	<rect y="1199.6" clip-path="url(#SVGID_2_)" fill="#01AE93" width="1024" height="300"/>
	<path clip-path="url(#SVGID_2_)" fill="#9B86BE" d="M-2.4,1284.6c0,0,91.2,110.1,177.8,94.3c65.9-12.1,93.1-17.4,148.9,3.5
		c17.5,6.6,35,16,60.7,29c101.3,51.6,144.4,139.5,230.2,42.5s200,8.4,200,8.4s20.4,20.7,55.1,23.1c43.7,2.9,104.7-3.7,132.2-70.6
		c6.1-16.4,16.5-38.6,21.4-62.4c22.5-108.2-13.5-301.3-13.5-301.3l-1012.9,5V1284.6z"/>
	<rect y="900" clip-path="url(#SVGID_2_)" fill="#9B86BE" width="1024" height="300"/>
	<path clip-path="url(#SVGID_2_)" fill="#E96A63" d="M-2.4,1056.9c0,0,78.1,91.9,236.7,50s202.2,2,202.2,2s27.1,19.2,67.5,16.4
		c41.5-2.9,96.9-28.4,144.5-83.8c93.8-109.3,200.6-28.6,200.6-28.6s33.9,32.4,81.9,7.7c37.8-19.4,91.1-65.2,96.7-124
		c11.3-120.5-8.7-234-8.7-234L-2.4,653.5v398.3V1056.9z"/>
	<rect y="552.4" clip-path="url(#SVGID_2_)" fill="#E96A63" width="1024" height="347.3"/>
	<path clip-path="url(#SVGID_2_)" fill="#01AE93" d="M-1.5,601.8c0,0,34.5,81.8,214.4,81.8s135.7,17.1,208.6,56.4s143,19.8,143,19.8
		S619,743.8,667,741.5c42.1-2,78.2,4.7,100,15.2c48.5,23.4,105.5,23.3,105.5,23.3s90.5,3.5,108.2-45c5.8-15.9,32.2-13.4,48.7-23
		c67.6-39.3-7.7-381.7-7.7-381.7H-1.5L-1.5,601.8z"/>
	<rect x="-1.5" y="-1" clip-path="url(#SVGID_2_)" fill="#9B86BE" width="1036.3" height="300.6"/>
	<rect y="178" clip-path="url(#SVGID_2_)" fill="#01AE93" width="1033.1" height="348.4"/>
	<path clip-path="url(#SVGID_2_)" fill="#9B86BE" d="M-3.3,360.3c0,0,72.2,49.6,130.4,62.1s135.6,24.3,203.8-16.8
		c49.8-30.1,105.9,11,185.7,16.2s99.5-93,197.3-108.8s94,34.9,227.6-14.5s93.3-115.5,93.3-115.5l-8-154H-3.3V360.3z"/>
</g>
</svg>
